<svg width="47" height="47" viewBox="0 0 47 47" fill="none" xmlns="http://www.w3.org/2000/svg">
<rect x="0.47" y="0.47" width="46.06" height="46.06" rx="10.81" stroke="white" stroke-width="0.94"/>
<path d="M27.8831 24.1017C28.1769 24.3955 28.5755 24.5606 28.9911 24.5606C29.4067 24.5606 29.8052 24.3955 30.0991 24.1017C30.393 23.8078 30.5581 23.4092 30.5581 22.9936C30.5581 22.5781 30.393 22.1795 30.0991 21.8856L28.7142 20.5015C29.008 20.7952 29.4066 20.9602 29.8221 20.9602C30.0278 20.9601 30.2315 20.9196 30.4216 20.8408C30.6117 20.762 30.7844 20.6466 30.9298 20.5011C31.0753 20.3556 31.1907 20.1828 31.2694 19.9927C31.3481 19.8027 31.3885 19.5989 31.3885 19.3932C31.3885 19.1874 31.3479 18.9837 31.2691 18.7936C31.1904 18.6036 31.0749 18.4309 30.9294 18.2854L28.7142 16.0702C28.4204 15.7763 28.0219 15.6112 27.6064 15.6111C27.1909 15.611 26.7924 15.776 26.4985 16.0698C26.2046 16.3635 26.0395 16.762 26.0394 17.1775C26.0394 17.593 26.2044 17.9916 26.4981 18.2854L25.114 16.9005C24.9685 16.755 24.7957 16.6396 24.6056 16.5608C24.4155 16.4821 24.2117 16.4415 24.0059 16.4415C23.8002 16.4415 23.5964 16.4821 23.4063 16.5608C23.2162 16.6396 23.0434 16.755 22.8979 16.9005C22.7524 17.046 22.637 17.2187 22.5582 17.4089C22.4795 17.599 22.439 17.8027 22.439 18.0085C22.439 18.2143 22.4795 18.4181 22.5582 18.6082C22.637 18.7983 22.7524 18.971 22.8979 19.1165L27.8831 24.1017Z" stroke="white" stroke-width="1.56667" stroke-linecap="round" stroke-linejoin="round"/>
<path d="M16.0586 30.9416L17.1553 29.845" stroke="white" stroke-width="1.56667" stroke-linecap="round" stroke-linejoin="round"/>
<path d="M29.8447 17.155L30.9414 16.0583" stroke="white" stroke-width="1.56667" stroke-linecap="round" stroke-linejoin="round"/>
<path d="M18.2852 30.9299C18.5789 31.2238 18.9774 31.3889 19.3929 31.389C19.5987 31.389 19.8024 31.3485 19.9925 31.2698C20.1826 31.1911 20.3553 31.0758 20.5008 30.9303C20.6463 30.7849 20.7618 30.6122 20.8405 30.4221C20.9193 30.232 20.9599 30.0283 20.9599 29.8226C20.9599 29.6168 20.9195 29.4131 20.8408 29.223C20.7621 29.0329 20.6467 28.8602 20.5012 28.7147L21.8854 30.0996C22.1792 30.3935 22.5778 30.5586 22.9934 30.5586C23.409 30.5586 23.8076 30.3935 24.1014 30.0996C24.3953 29.8057 24.5604 29.4072 24.5604 28.9916C24.5604 28.576 24.3953 28.1774 24.1014 27.8835L19.1163 22.8984C18.9708 22.7529 18.798 22.6375 18.6079 22.5587C18.4178 22.48 18.2141 22.4395 18.0083 22.4395C17.8025 22.4395 17.5987 22.48 17.4086 22.5587C17.2185 22.6375 17.0458 22.7529 16.9002 22.8984C16.7547 23.0439 16.6393 23.2167 16.5606 23.4068C16.4818 23.5969 16.4413 23.8007 16.4413 24.0064C16.4413 24.2122 16.4818 24.416 16.5606 24.6061C16.6393 24.7962 16.7547 24.969 16.9002 25.1145L18.2852 26.4986C17.9913 26.2048 17.5928 26.0399 17.1773 26.0399C16.7618 26.04 16.3633 26.2051 16.0695 26.499C15.7758 26.7929 15.6108 27.1914 15.6108 27.6069C15.6109 28.0224 15.776 28.4209 16.0699 28.7147L18.2852 30.9299Z" stroke="white" stroke-width="1.56667" stroke-linecap="round" stroke-linejoin="round"/>
<path d="M21.6201 25.3801L25.3801 21.6201" stroke="white" stroke-width="1.56667" stroke-linecap="round" stroke-linejoin="round"/>
</svg>
