<svg width="22" height="22" viewBox="0 0 22 22" fill="none" xmlns="http://www.w3.org/2000/svg">
<path d="M19.75 0H13.75C12.7835 0 12 0.783502 12 1.75V7.75C12 8.7165 12.7835 9.5 13.75 9.5H19.75C20.7165 9.5 21.5 8.7165 21.5 7.75V1.75C21.5 0.783502 20.7165 0 19.75 0Z" fill="#151515"/>
<path d="M21.4834 15.5127L17.9873 12.0166C17.6588 11.6892 17.2138 11.5054 16.75 11.5054C16.2862 11.5054 15.8413 11.6892 15.5127 12.0166L12.0166 15.5127C11.689 15.8411 11.505 16.2861 11.505 16.75C11.505 17.2139 11.689 17.6589 12.0166 17.9873L15.5127 21.4834C15.8411 21.8111 16.2861 21.9951 16.75 21.9951C17.2139 21.9951 17.6589 21.8111 17.9873 21.4834L21.4834 17.9873C21.8112 17.659 21.9954 17.214 21.9954 16.75C21.9954 16.286 21.8112 15.841 21.4834 15.5127Z" fill="#151515"/>
<path d="M7.75 0H1.75C0.783502 0 0 0.783502 0 1.75V7.75C0 8.7165 0.783502 9.5 1.75 9.5H7.75C8.7165 9.5 9.5 8.7165 9.5 7.75V1.75C9.5 0.783502 8.7165 0 7.75 0Z" fill="#151515"/>
<path d="M7.75 12H1.75C0.783502 12 0 12.7835 0 13.75V19.75C0 20.7165 0.783502 21.5 1.75 21.5H7.75C8.7165 21.5 9.5 20.7165 9.5 19.75V13.75C9.5 12.7835 8.7165 12 7.75 12Z" fill="#151515"/>
</svg>
