<svg width="141" height="31" viewBox="0 0 141 31" fill="none" xmlns="http://www.w3.org/2000/svg">
<g clip-path="url(#clip0_4020_2926)">
<path d="M50.456 23.5632H50.3912L46.4315 7.69493H41.7755L37.8323 23.5632H37.7675L34.101 7.69493H29.2007L35.3667 29.9106H39.9899L44.0631 14.7253H44.1444L48.2167 29.9106H52.8737L59.0233 7.69493H54.1235L50.456 23.5632ZM108.981 7.33643C103.14 7.33643 99.652 11.1286 99.652 17.4915V20.1771C99.652 26.6059 103.125 30.2836 108.966 30.2836C114.823 30.2836 117.743 26.7029 117.743 22.6997V22.2932H113.345C113.345 24.5873 112.209 26.3779 109.045 26.3779C105.866 26.3779 104.308 24.4078 104.308 20.1771V17.4915C104.308 13.3092 105.881 11.2096 109.013 11.2096C111.95 11.2096 113.345 13.1627 113.345 15.3598H117.742V15.1318C117.743 10.8031 114.465 7.33643 108.981 7.33643ZM66.4385 7.69493L59.2989 29.9101H63.8907L65.494 24.3113H72.5001L74.0792 29.9101H78.9959L71.8728 7.69493H66.4385ZM66.4743 20.8941L69.0019 12.0722H69.0507L71.5391 20.8941H66.4743ZM136.272 7.69493V16.6129H127.219V7.69493H122.627V29.9106H127.219V20.4381H136.272V29.9106H140.881V7.69493H136.272ZM78.9156 11.5356H85.5034V29.9106H90.0792V11.5356H96.6824V7.69493H78.9156V11.5356Z" fill="#666666"/>
<path d="M18.3214 7.32144C15.8335 7.13758 13.7238 8.71568 12.5466 8.71568C11.3525 8.71568 9.5108 7.36122 7.55687 7.39712C4.99306 7.4369 2.62949 8.89275 1.30768 11.198C-1.35624 15.8363 0.627674 22.7071 3.22195 26.4682C4.49104 28.3092 6.00388 30.3802 7.99215 30.3045C9.90642 30.2293 10.6295 29.0616 12.9423 29.0616C15.2536 29.0616 15.9061 30.3045 17.9296 30.2652C19.9885 30.2288 21.2939 28.3912 22.5533 26.54C24.0115 24.4069 24.6102 22.3418 24.646 22.2297C24.6001 22.2137 20.6313 20.6836 20.5916 16.0978C20.5558 12.2648 23.7116 10.4204 23.8557 10.3316C22.0638 7.68625 19.2959 7.39421 18.3214 7.32144ZM16.7858 4.83665C17.8421 3.55788 18.5535 1.77215 18.3577 0C16.8371 0.0591847 14.9983 1.01633 13.9081 2.29462C12.9311 3.42883 12.0732 5.24367 12.3058 6.98283C14.0019 7.11381 15.73 6.11834 16.7858 4.83665Z" fill="#666666"/>
</g>
<defs>
<clipPath id="clip0_4020_2926">
<rect width="140.925" height="30.3065" fill="white"/>
</clipPath>
</defs>
</svg>
