<svg width="32" height="32" viewBox="0 0 32 32" fill="none" xmlns="http://www.w3.org/2000/svg">
<path d="M13.3333 29.373C13.8533 29.373 14.3733 29.2663 14.88 29.0663C16.3867 28.4397 17.3333 27.0397 17.3467 25.3997V22.653H26.7067C29.6267 22.653 32 20.253 32 17.3063V14.6663C32 11.7197 29.6267 9.31967 26.7067 9.31967H17.3333V6.573C17.3333 4.933 16.3867 3.533 14.8667 2.90633C13.36 2.27967 11.6933 2.613 10.5467 3.773L1.58667 12.213L1.56 12.2397C-0.506668 14.3063 -0.506668 17.6663 1.56 19.733L10.5867 28.2263C11.3333 28.973 12.32 29.373 13.3333 29.373ZM26.7067 11.9863C28.16 11.9863 29.3333 13.1863 29.3333 14.6663V17.3063C29.3333 18.7863 28.1467 19.9863 26.7067 19.9863H16C15.2667 19.9863 14.6667 20.5863 14.6667 21.3197V25.3997C14.6667 26.1997 14.04 26.5197 13.8533 26.5997C13.6667 26.6797 13 26.893 12.4267 26.3197L3.4 17.8263C2.41333 16.8397 2.4 15.173 3.41333 14.1463L12.3867 5.70633C12.9867 5.10633 13.6533 5.31967 13.84 5.38633C14.0267 5.46633 14.6533 5.78633 14.6533 6.58633V10.653C14.6533 11.3863 15.2533 11.9863 15.9867 11.9863H26.7067Z" fill="#666666"/>
</svg>
